<svg width="120" height="120" viewBox="0 0 120 120" fill="none" xmlns="http://www.w3.org/2000/svg">
<circle cx="60" cy="60" r="60" fill="#F79F33"/>
<path d="M83.3343 67.2642V88.7442C83.3343 90.111 81.0126 92.1357 78.1491 92.1357H36.6676C35.2924 92.1357 33.9735 91.6593 33.0011 90.8112C32.0287 89.9632 31.4824 88.813 31.4824 87.6136V74.0473" fill="white"/>
<path d="M83.3343 67.2642V88.7442C83.3343 90.111 81.0126 92.1357 78.1491 92.1357H36.6676C35.2924 92.1357 33.9735 91.6593 33.0011 90.8112C32.0287 89.9632 31.4824 88.813 31.4824 87.6136V74.0473" stroke="black" stroke-width="3" stroke-linejoin="round"/>
<path d="M83.3343 33.3487V26.5655C83.3343 25.3662 82.788 24.216 81.8156 23.3679C80.8432 22.5199 79.5243 22.0435 78.1491 22.0435H36.6676C35.2924 22.0435 33.9735 22.5199 33.0011 23.3679C32.0287 24.216 31.4824 25.3662 31.4824 26.5655V51.437" fill="white"/>
<path d="M83.3343 33.3487V26.5655C83.3343 25.3662 82.788 24.216 81.8156 23.3679C80.8432 22.5199 79.5243 22.0435 78.1491 22.0435H36.6676C35.2924 22.0435 33.9735 22.5199 33.0011 23.3679C32.0287 24.216 31.4824 25.3662 31.4824 26.5655V51.437" stroke="black" stroke-width="3" stroke-linejoin="round"/>
<path d="M31.4824 31.0874H83.3343" stroke="black" stroke-width="3" stroke-linejoin="round"/>
<path d="M31.4824 83.0913H83.3343" stroke="black" stroke-width="3" stroke-linejoin="round"/>
<path d="M62.5918 26.5654H65.1844" stroke="black" stroke-width="3" stroke-linejoin="round"/>
<path d="M56.1113 87.6133H58.7039" stroke="black" stroke-width="3" stroke-linejoin="round"/>
<path d="M59.9993 26.5654H49.6289" stroke="black" stroke-width="3" stroke-linejoin="round"/>
<path d="M56.1111 54.8281H25V59.3503H56.1111V54.8281Z" fill="white" stroke="black" stroke-width="3" stroke-linejoin="round"/>
<path d="M27.5918 59.3506V69.5252C27.5918 69.8251 27.7284 70.1126 27.9715 70.3246C28.2146 70.5367 28.5443 70.6558 28.8881 70.6558H52.2214C52.5652 70.6558 52.895 70.5367 53.1381 70.3246C53.3812 70.1126 53.5177 69.8251 53.5177 69.5252V59.3506" fill="white"/>
<path d="M27.5918 59.3506V69.5252C27.5918 69.8251 27.7284 70.1126 27.9715 70.3246C28.2146 70.5367 28.5443 70.6558 28.8881 70.6558H52.2214C52.5652 70.6558 52.895 70.5367 53.1381 70.3246C53.3812 70.1126 53.5177 69.8251 53.5177 69.5252V59.3506" stroke="black" stroke-width="3" stroke-linejoin="round"/>
<path d="M40.5547 62.7422V67.2644" stroke="black" stroke-width="3" stroke-linejoin="round"/>
<path d="M47.0371 62.7422V67.2644" stroke="black" stroke-width="3" stroke-linejoin="round"/>
<path d="M34.0742 62.7422V67.2644" stroke="black" stroke-width="3" stroke-linejoin="round"/>
<path d="M43.1481 49.1758H37.9629V54.8286H43.1481V49.1758Z" fill="white" stroke="black" stroke-width="3" stroke-linejoin="round"/>
<path d="M79.4442 63.8726C88.0353 63.8726 94.9998 57.7988 94.9998 50.3064C94.9998 42.814 88.0353 36.7402 79.4442 36.7402C70.8531 36.7402 63.8887 42.814 63.8887 50.3064C63.8887 57.7988 70.8531 63.8726 79.4442 63.8726Z" fill="white" stroke="black" stroke-width="3" stroke-linejoin="round"/>
<path d="M74.2598 52.5675V54.8998C74.2598 55.4806 74.5243 56.0376 74.9952 56.4482C75.4661 56.8589 76.1048 57.0896 76.7707 57.0896H82.1179C82.4478 57.0897 82.7744 57.0332 83.0792 56.9232C83.384 56.8133 83.6609 56.652 83.8942 56.4486C84.1275 56.2453 84.3126 56.0038 84.4389 55.7381C84.5651 55.4723 84.6301 55.1875 84.6301 54.8998V52.4975C84.6303 52.2097 84.5654 51.9247 84.4392 51.6588C84.3131 51.393 84.128 51.1514 83.8947 50.9479C83.6614 50.7444 83.3844 50.583 83.0795 50.473C82.7746 50.3629 82.4479 50.3064 82.1179 50.3065H76.7707C76.1048 50.3065 75.4661 50.0758 74.9952 49.6651C74.5243 49.2545 74.2598 48.6975 74.2598 48.1167V45.7144C74.2596 45.4267 74.3244 45.1418 74.4505 44.876C74.5766 44.6102 74.7616 44.3687 74.9947 44.1652C75.2279 43.9618 75.5048 43.8004 75.8095 43.6902C76.1142 43.5801 76.4408 43.5234 76.7707 43.5234H82.1179C82.4479 43.5233 82.7746 43.5799 83.0795 43.6899C83.3844 43.8 83.6614 43.9613 83.8947 44.1648C84.128 44.3683 84.3131 44.6099 84.4392 44.8758C84.5654 45.1416 84.6303 45.4266 84.6301 45.7144V48.0455" fill="white"/>
<path d="M74.2598 52.5675V54.8998C74.2598 55.4806 74.5243 56.0376 74.9952 56.4482C75.4661 56.8589 76.1048 57.0896 76.7707 57.0896H82.1179C82.4478 57.0897 82.7744 57.0332 83.0792 56.9232C83.384 56.8133 83.6609 56.652 83.8942 56.4486C84.1275 56.2453 84.3126 56.0038 84.4389 55.7381C84.5651 55.4723 84.6301 55.1875 84.6301 54.8998V52.4975C84.6303 52.2097 84.5654 51.9247 84.4392 51.6588C84.3131 51.393 84.128 51.1514 83.8947 50.9479C83.6614 50.7444 83.3844 50.583 83.0795 50.473C82.7746 50.3629 82.4479 50.3064 82.1179 50.3065H76.7707C76.1048 50.3065 75.4661 50.0758 74.9952 49.6651C74.5243 49.2545 74.2598 48.6975 74.2598 48.1167V45.7144C74.2596 45.4267 74.3244 45.1418 74.4505 44.876C74.5766 44.6102 74.7616 44.3687 74.9947 44.1652C75.2279 43.9618 75.5048 43.8004 75.8095 43.6902C76.1142 43.5801 76.4408 43.5234 76.7707 43.5234H82.1179C82.4479 43.5233 82.7746 43.5799 83.0795 43.6899C83.3844 43.8 83.6614 43.9613 83.8947 44.1648C84.128 44.3683 84.3131 44.6099 84.4392 44.8758C84.5654 45.1416 84.6303 45.4266 84.6301 45.7144V48.0455" stroke="black" stroke-width="3" stroke-linejoin="round"/>
<path d="M79.4453 43.5232V40.1318" stroke="black" stroke-width="3" stroke-linejoin="round"/>
<path d="M79.4453 60.4812V57.0898" stroke="black" stroke-width="3" stroke-linejoin="round"/>
<path d="M44.4449 35.6094L39.2598 40.1316L44.4449 44.6538" fill="white"/>
<path d="M44.4449 35.6094L39.2598 40.1316L44.4449 44.6538" stroke="black" stroke-width="3" stroke-linejoin="round"/>
<path d="M39.2598 40.1318H56.1116C56.4541 40.1255 56.7944 40.1797 57.1123 40.2911C57.4301 40.4025 57.7188 40.5688 57.961 40.78C58.2032 40.9912 58.3939 41.243 58.5216 41.5201C58.6493 41.7973 58.7114 42.0941 58.7042 42.3928V45.7842" fill="white"/>
<path d="M39.2598 40.1318H56.1116C56.4541 40.1255 56.7944 40.1797 57.1123 40.2911C57.4301 40.4025 57.7188 40.5688 57.961 40.78C58.2032 40.9912 58.3939 41.243 58.5216 41.5201C58.6493 41.7973 58.7114 42.0941 58.7042 42.3928V45.7842" stroke="black" stroke-width="3" stroke-linejoin="round"/>
<path d="M72.9629 78.5693L78.1481 74.0471L72.9629 69.5249" fill="white"/>
<path d="M72.9629 78.5693L78.1481 74.0471L72.9629 69.5249" stroke="black" stroke-width="3" stroke-linejoin="round"/>
<path d="M78.1481 74.0466H61.2963C60.9538 74.0529 60.6135 73.9988 60.2956 73.8874C59.9778 73.776 59.6891 73.6097 59.4469 73.3985C59.2047 73.1873 59.014 72.9355 58.8863 72.6584C58.7586 72.3812 58.6964 72.0844 58.7037 71.7858V68.3945" fill="white"/>
<path d="M78.1481 74.0466H61.2963C60.9538 74.0529 60.6135 73.9988 60.2956 73.8874C59.9778 73.776 59.6891 73.6097 59.4469 73.3985C59.2047 73.1873 59.014 72.9355 58.8863 72.6584C58.7586 72.3812 58.6964 72.0844 58.7037 71.7858V68.3945" stroke="black" stroke-width="3" stroke-linejoin="round"/>
</svg>
