<svg width="120" height="120" viewBox="0 0 120 120" fill="none" xmlns="http://www.w3.org/2000/svg">
<rect x="64" y="27" width="27" height="65" fill="white"/>
<rect x="29" y="62" width="38" height="30" fill="white"/>
<rect x="51" y="56" width="13" height="8" fill="white"/>
<circle cx="60" cy="60" r="60" fill="#F79F33"/>
<path d="M66.3547 22.0435C63.4979 22.0435 61.4 24.6845 61.4 27.6508C61.4 29.2881 62.0533 30.8067 63.1062 31.8564C62.0549 32.906 61.4 34.4261 61.4 36.0619C61.4 37.6992 62.0533 39.2178 63.1062 40.2674C62.0549 41.3171 61.4 42.8372 61.4 44.473C61.4 46.1203 62.0636 47.6449 63.1281 48.6949C62.7113 49.1073 62.3719 49.5845 62.1 50.1187C56.8588 50.2788 52.1253 52.3602 48.543 55.6877H29.9547C27.0979 55.6877 25 58.3288 25 61.2951C25 62.9324 25.6533 64.451 26.7062 65.5007C25.6549 66.5503 25 68.0704 25 69.7062C25 71.3435 25.6533 72.8621 26.7062 73.9117C25.6549 74.9613 25 76.4815 25 78.1173C25 79.7546 25.6533 81.2732 26.7062 82.3228C25.6549 83.3724 25 84.8926 25 86.5283C25 89.4949 27.0979 92.1357 29.9547 92.1357H61.5203C61.6384 92.1359 61.756 92.1212 61.8703 92.0919C62.1624 92.104 62.4501 92.1357 62.7453 92.1357C63.1548 92.1357 63.5556 92.0987 63.9594 92.0755C64.0941 92.1164 64.2342 92.1367 64.375 92.1357H90.0453C92.9021 92.1357 95 89.4949 95 86.5283C95 84.8926 94.3451 83.3724 93.2937 82.3228C94.3467 81.2732 95 79.7546 95 78.1173C95 76.4815 94.3451 74.9613 93.2937 73.9117C94.3467 72.8621 95 71.3435 95 69.7062C95 68.0704 94.3451 66.5503 93.2937 65.5007C94.3467 64.451 95 62.9324 95 61.2951C95 59.6594 94.3451 58.1392 93.2937 57.0896C94.3467 56.04 95 54.5214 95 52.884C95 51.2483 94.3451 49.7281 93.2937 48.6785C94.3467 47.6289 95 46.1103 95 44.473C95 42.8372 94.3451 41.3171 93.2937 40.2674C94.3467 39.2178 95 37.6992 95 36.0619C95 34.4261 94.3451 32.906 93.2937 31.8564C94.3467 30.8067 95 29.2881 95 27.6508C95 24.6845 92.9021 22.0435 90.0453 22.0435H66.3547ZM66.3547 24.8471H90.0453C91.1261 24.8471 92.2 25.9577 92.2 27.6508C92.2 29.3443 91.1261 30.4545 90.0453 30.4545H66.3547C65.2739 30.4545 64.2 29.3443 64.2 27.6508C64.2 25.9577 65.2739 24.8471 66.3547 24.8471ZM66.3547 33.2582H90.0453C91.1261 33.2582 92.2 34.3688 92.2 36.0619C92.2 37.7553 91.1261 38.8656 90.0453 38.8656H66.3547C65.2739 38.8656 64.2 37.7553 64.2 36.0619C64.2 34.3688 65.2739 33.2582 66.3547 33.2582ZM66.3547 41.6693H90.0453C91.1261 41.6693 92.2 42.7798 92.2 44.473C92.2 46.1664 91.1261 47.2767 90.0453 47.2767H66.3547C65.2739 47.2767 64.2 46.1664 64.2 44.473C64.2 42.7798 65.2739 41.6693 66.3547 41.6693ZM66.3547 50.0804H90.0453C91.1262 50.0804 92.2 51.1909 92.2 52.884C92.2 54.5775 91.1262 55.6877 90.0453 55.6877H76.9367C73.8583 52.8283 69.93 50.8908 65.5617 50.2994C65.8147 50.1681 66.0788 50.0804 66.3547 50.0804ZM62.7453 52.8895C72.8311 52.8895 81 61.0411 81 71.108C81 81.18 72.8311 89.332 62.7453 89.332C52.6563 89.332 44.6 81.1901 44.6 71.108C44.6 61.0307 52.6563 52.8895 62.7453 52.8895ZM29.9547 58.4914H46.0219C44.7538 60.183 43.7363 62.0672 43.0195 64.0988H29.9547C28.8739 64.0988 27.8 62.9885 27.8 61.2951C27.8 59.602 28.8739 58.4914 29.9547 58.4914ZM79.4578 58.4914H90.0453C91.1261 58.4914 92.2 59.602 92.2 61.2951C92.2 62.9885 91.1261 64.0988 90.0453 64.0988H82.4711C81.7515 62.067 80.7272 60.1834 79.4578 58.4914ZM55.7836 61.3006V83.7301H58.5836V76.4142C59.7381 77.464 61.1711 78.1227 62.7945 78.1227C66.8358 78.1227 69.8001 74.1897 69.8 69.7117C69.8 65.2336 66.8357 61.3006 62.7945 61.3006C61.1711 61.3006 59.7381 61.9539 58.5836 63.0036V61.3006H55.7836ZM62.7945 64.1043C64.9464 64.1043 67 66.4473 67 69.7117C67.0001 72.976 64.9465 75.319 62.7945 75.319C60.6426 75.319 58.5835 72.976 58.5836 69.7117C58.5836 66.4473 60.6427 64.1043 62.7945 64.1043ZM29.9547 66.9025H42.2211C41.9465 68.2606 41.8 69.67 41.8 71.108C41.8 71.5821 41.8403 72.0435 41.8711 72.5099H29.9547C28.8739 72.5099 27.8 71.3996 27.8 69.7062C27.8 68.013 28.8739 66.9025 29.9547 66.9025ZM83.2477 66.9025H90.0453C91.1261 66.9025 92.2 68.013 92.2 69.7062C92.2 71.3996 91.1261 72.5099 90.0453 72.5099H83.7289C83.7599 72.0443 83.8 71.5813 83.8 71.108C83.8006 70.92 83.7634 70.7338 83.6906 70.5604C83.6888 70.5604 83.687 70.5604 83.6852 70.5604C83.6506 69.3108 83.4903 68.0899 83.2477 66.9025ZM29.9547 75.3136H42.2211C42.6229 77.2989 43.3111 79.1801 44.2281 80.921H29.9547C28.8739 80.921 27.8 79.8107 27.8 78.1173C27.8 76.4241 28.8739 75.3136 29.9547 75.3136ZM83.3789 75.3136H90.0453C91.1261 75.3136 92.2 76.4241 92.2 78.1173C92.2 79.8107 91.1261 80.921 90.0453 80.921H81.35C82.275 79.1806 82.9728 77.2991 83.3789 75.3136ZM69.8 75.3629V78.1665H72.5781V75.3629H69.8ZM45.9508 83.6261C47.663 85.9383 49.8258 87.8875 52.3273 89.332H29.9547C28.8739 89.332 27.8 88.2218 27.8 86.5283C27.8 84.8352 28.8739 83.7246 29.9547 83.7246H45.4203C45.6018 83.7265 45.782 83.6931 45.9508 83.6261ZM79.5453 83.7246H90.0453C91.1261 83.7246 92.2 84.8352 92.2 86.5283C92.2 88.2218 91.1261 89.332 90.0453 89.332H73.1961C75.6759 87.9076 77.8304 85.9954 79.5453 83.7246Z" fill="white"/>
</svg>
