<svg width="120" height="120" viewBox="0 0 120 120" fill="none" xmlns="http://www.w3.org/2000/svg">
<circle cx="60" cy="60" r="60" fill="#F79F33"/>
<ellipse cx="48.0996" cy="51.1293" rx="21" ry="26.1293" fill="white"/>
<path d="M89.613 58.1679L64.7654 87.0343L63.0913 30.7766L89.613 58.1679Z" fill="white"/>
<ellipse cx="37.9496" cy="77.946" rx="10.85" ry="10.3142" fill="white"/>
<ellipse cx="69.1" cy="71.7576" rx="23.1" ry="16.5027" fill="white"/>
<path d="M78.8683 92.4016C79.4597 92.4016 79.9669 91.9638 80.0276 91.3747L80.9672 82.5314H86.3618C87.8623 82.5314 89.1502 81.3875 89.2975 79.9251L89.98 73.0439H92.8128C93.6566 73.0439 94.3554 72.6932 94.7294 72.0789C95.1034 71.4669 95.0893 70.6944 94.6897 69.9655L90.6064 61.0946L90.7536 58.5365C90.756 54.1538 88.7388 49.9293 85.2212 46.8806C84.7397 46.4611 83.9988 46.5047 83.571 46.9815C83.1433 47.456 83.19 48.1803 83.6739 48.5998C86.7358 51.2496 88.4186 54.7567 88.4186 58.4723L88.2574 61.2459C88.2457 61.4293 88.2807 61.6149 88.3579 61.7823L92.4879 70.7448L88.9188 70.7517C88.3158 70.7517 87.8133 71.1987 87.7548 71.7855L86.9695 79.7005C86.9414 79.9824 86.6516 80.2369 86.3618 80.2369H79.9155C79.3171 80.2369 78.8146 80.6793 78.7538 81.2638L77.7043 91.1363C77.6366 91.7644 78.104 92.3306 78.7445 92.3947C78.7865 92.3993 78.8286 92.4016 78.8683 92.4016Z" fill="black"/>
<path d="M67.6703 92.4951C68.2593 92.4951 68.7665 92.0596 68.8296 91.4705L70.2203 78.703H76.5848C78.2256 78.703 79.6327 77.4515 79.7846 75.8561L80.5863 67.7968H84.0035C84.9127 67.7968 85.6606 67.4232 86.0603 66.7722C86.4577 66.1189 86.439 65.2937 86.0112 64.5075L81.2922 54.2592L81.4628 51.2656C81.4651 45.4755 78.3635 39.9697 73.1677 36.481C72.6371 36.1234 71.9078 36.2563 71.5455 36.7789C71.1809 37.3016 71.3142 38.0121 71.8494 38.3697C76.4072 41.4344 79.1278 46.2319 79.1278 51.2014L78.9432 54.4081C78.9315 54.5938 78.9665 54.7772 79.0437 54.9445L83.9006 65.4863L79.5252 65.5046C78.9221 65.5046 78.4196 65.9516 78.3612 66.5384L77.4566 75.6361C77.4169 76.051 77.0102 76.4108 76.5848 76.4108H69.1708C68.5725 76.4108 68.0723 76.8509 68.0092 77.4355L66.5063 91.2298C66.4385 91.8579 66.9013 92.4241 67.5441 92.4905C67.5861 92.4928 67.6282 92.4951 67.6703 92.4951Z" fill="black"/>
<path d="M58.8929 75.4387H64.9372C66.7136 75.4387 68.2328 74.084 68.4011 72.3534L69.3173 63.109H73.3235C74.2958 63.109 75.0952 62.7125 75.5159 62.0202C75.9366 61.3303 75.9156 60.4524 75.4528 59.6112L70.105 47.9829L70.299 44.5583C70.3013 33.0997 59.9073 23.8301 47.1292 23.8301C34.517 23.8301 25.0018 33.5994 25.0018 46.5503C25.0018 51.4968 26.2359 56.2072 28.7789 60.9475C29.0781 61.5091 29.7886 61.72 30.3566 61.4289C30.9292 61.1355 31.1489 60.4409 30.8474 59.8816C28.4867 55.476 27.3391 51.1163 27.3391 46.5503C27.3391 34.9036 35.8469 26.1223 47.1292 26.1223C58.6171 26.1223 67.964 34.365 67.964 44.4965L67.756 48.1365C67.7443 48.3198 67.7794 48.5032 67.8565 48.6705L73.3585 60.6289C73.403 60.7091 73.431 60.7733 73.4497 60.8168C73.4123 60.8191 73.3749 60.8191 73.3235 60.8191H68.2562C67.6532 60.8191 67.1506 61.2661 67.0922 61.8552L66.0731 72.138C66.0217 72.6858 65.5005 73.1465 64.9372 73.1465H58.8929C58.2478 73.1465 57.7242 73.66 57.7242 74.2926C57.7242 74.9253 58.2478 75.4387 58.8929 75.4387Z" fill="black"/>
<path d="M45.045 62.7446H49.2475C49.7968 62.7446 50.2713 62.3687 50.3881 61.8415L51.08 58.7425C52.05 58.4651 52.9826 58.0846 53.8707 57.6056L56.5961 59.3178C57.0588 59.6089 57.6642 59.5447 58.0522 59.1642L61.0229 56.2509C61.4109 55.8704 61.4764 55.2744 61.1795 54.8229L59.4336 52.1502C59.9221 51.2792 60.3101 50.3646 60.5929 49.4133L63.7529 48.7348C64.2928 48.6202 64.6738 48.1549 64.6738 47.614V43.4903C64.6738 42.9517 64.2928 42.4864 63.7553 42.3718L60.5975 41.6933C60.3124 40.7397 59.9221 39.8251 59.4359 38.9564L61.1819 36.2837C61.4787 35.8322 61.4133 35.2362 61.0253 34.8557L58.0545 31.9423C57.6665 31.5618 57.0612 31.4977 56.5984 31.7888L53.8731 33.501C52.9826 33.022 52.05 32.6415 51.0823 32.3641L50.3905 29.2651C50.2736 28.7402 49.7991 28.3643 49.2499 28.3643H45.045C44.4958 28.3643 44.0213 28.7379 43.9044 29.2651L43.2126 32.3664C42.2449 32.6415 41.3123 33.022 40.4218 33.501L37.6965 31.7888C37.2314 31.4954 36.626 31.5596 36.238 31.9401L33.2673 34.8534C32.8793 35.2339 32.8138 35.8299 33.1107 36.2814L34.8543 38.9587C34.3658 39.832 33.9778 40.7466 33.6974 41.6933L30.535 42.3718C29.9997 42.4864 29.6164 42.9517 29.6164 43.4903V47.614C29.6164 48.1526 29.9974 48.6179 30.535 48.7325L33.6974 49.411C33.9778 50.3577 34.3658 51.2746 34.8543 52.1456L33.1084 54.8206C32.8115 55.2721 32.877 55.8681 33.2649 56.2486L36.2357 59.1642C36.626 59.547 37.2314 59.6043 37.6918 59.3178L40.4171 57.6033C41.3053 58.0823 42.2379 58.4606 43.2079 58.7379L43.8997 61.8392C44.0189 62.3687 44.4934 62.7446 45.045 62.7446ZM48.3079 60.4524H45.9846L45.3419 57.5689C45.246 57.138 44.9048 56.7964 44.4677 56.6956C43.243 56.4159 42.0813 55.9414 41.0108 55.2905C40.6322 55.059 40.1437 55.059 39.765 55.2996L37.229 56.8927L35.5859 55.2813L37.2103 52.7943C37.4534 52.423 37.4558 51.9485 37.222 51.5748C36.5512 50.5113 36.0697 49.3721 35.7869 48.1824C35.6841 47.7515 35.3382 47.4191 34.8987 47.3251L31.9584 46.6948V44.4141L34.8964 43.7814C35.3358 43.6875 35.6817 43.3528 35.7846 42.9242C36.0674 41.7322 36.5489 40.593 37.2197 39.5317C37.4558 39.1581 37.4511 38.6836 37.208 38.3123L35.5836 35.8253L37.2267 34.2139L39.7627 35.807C40.1413 36.0476 40.6252 36.0476 41.0085 35.8161C42.0837 35.1629 43.2453 34.6907 44.4654 34.411C44.9048 34.3102 45.2437 33.9709 45.3395 33.54L45.9823 30.6564H48.3056L48.9484 33.54C49.0442 33.9709 49.3854 34.3102 49.8248 34.411C51.0426 34.6884 52.2042 35.1606 53.2817 35.8161C53.6627 36.0476 54.1465 36.0476 54.5275 35.807L57.0635 34.2139L58.7067 35.8253L57.0822 38.3123C56.8391 38.6836 56.8368 39.1604 57.0729 39.534C57.7367 40.5816 58.2205 41.7231 58.5127 42.9265C58.6155 43.3574 58.9591 43.6875 59.3985 43.7814L62.3365 44.4141V46.6925L59.3962 47.3229C58.9567 47.4168 58.6108 47.7515 58.508 48.1801C58.2228 49.3789 57.7413 50.5204 57.0752 51.5703C56.8368 51.9439 56.8391 52.4207 57.0846 52.792L58.709 55.279L57.0659 56.8904L54.5299 55.2973C54.1489 55.059 53.6604 55.059 53.2841 55.2882C52.2113 55.9414 51.0496 56.4159 49.8272 56.6933C49.3878 56.7941 49.0465 57.1334 48.9507 57.5666L48.3079 60.4524ZM47.1486 53.5782C51.6596 53.5782 55.3292 49.9795 55.3292 45.5556C55.3292 41.1317 51.6596 37.533 47.1486 37.533C42.6376 37.533 38.968 41.1317 38.968 45.5556C38.968 49.9795 42.6376 53.5782 47.1486 53.5782ZM47.1486 39.8251C50.3718 39.8251 52.9919 42.3947 52.9919 45.5556C52.9919 48.7165 50.3718 51.286 47.1486 51.286C43.9255 51.286 41.3053 48.7165 41.3053 45.5556C41.3053 42.3947 43.9255 39.8251 47.1486 39.8251Z" fill="black"/>
<path d="M37.9279 90.2671H41.3965C41.9458 90.2671 42.4202 89.8912 42.5371 89.364L43.0794 86.9228C43.8109 86.705 44.5215 86.4162 45.197 86.0609L47.3473 87.4087C47.8101 87.7021 48.4155 87.6357 48.8035 87.2552L51.2577 84.8484C51.6456 84.4679 51.7111 83.8719 51.4143 83.418L50.0352 81.3138C50.3999 80.6491 50.6944 79.9522 50.9164 79.2371L53.4033 78.703C53.9386 78.5884 54.3242 78.1231 54.3242 77.5844V74.1828C54.3242 73.6442 53.9409 73.1788 53.4033 73.0642L50.9164 72.5301C50.6944 71.8127 50.3999 71.1182 50.0352 70.4534L51.4143 68.3446C51.7111 67.8931 51.6456 67.2971 51.2577 66.9166L48.8058 64.5121C48.4178 64.1316 47.8124 64.0651 47.3496 64.3585L45.1993 65.7063C44.5238 65.351 43.8133 65.0599 43.0817 64.8422L42.5394 62.4056C42.4226 61.8807 41.9481 61.5024 41.3988 61.5024H37.9302C37.3833 61.5024 36.9065 61.8761 36.7896 62.4033L36.245 64.8422C35.5135 65.0599 34.8052 65.3487 34.1251 65.7063L31.9794 64.3585C31.5166 64.0697 30.9136 64.1316 30.5233 64.5121L28.0714 66.9166C27.6834 67.2971 27.618 67.8908 27.9148 68.3446L29.2892 70.4534C28.9269 71.1182 28.63 71.815 28.408 72.5301L25.9211 73.0642C25.3858 73.1788 25.0002 73.6442 25.0002 74.1828V77.5821C25.0002 78.1208 25.3835 78.5861 25.9211 78.7007L28.4103 79.2348C28.63 79.9523 28.9245 80.6445 29.2892 81.3115L27.9148 83.418C27.618 83.8696 27.6834 84.4656 28.0714 84.8461L30.5233 87.2529C30.9136 87.6357 31.526 87.693 31.9794 87.4064L34.1251 86.0563C34.8052 86.4116 35.5135 86.7004 36.245 86.9182L36.7896 89.3617C36.9018 89.8935 37.3763 90.2671 37.9279 90.2671ZM40.4546 87.9749H38.8675L38.3697 85.7492C38.2738 85.3183 37.9302 84.979 37.4932 84.8782C36.5115 84.6535 35.5742 84.273 34.7024 83.7458C34.3238 83.512 33.8376 83.5143 33.459 83.755L31.5073 84.9813L30.3854 83.8811L31.6358 81.9648C31.8789 81.5935 31.8813 81.119 31.6452 80.7431C31.1053 79.8881 30.7173 78.9689 30.4906 78.0108C30.3877 77.5798 30.0441 77.2429 29.6 77.1489L27.3328 76.663V75.1043L29.5954 74.6183C30.0348 74.5244 30.3807 74.1897 30.4835 73.7611C30.7173 72.796 31.1076 71.8769 31.6452 71.0242C31.8836 70.6483 31.8813 70.1738 31.6358 69.8024L30.3854 67.8839L31.5073 66.7836L33.459 68.01C33.8376 68.2483 34.3238 68.2483 34.7024 68.0191C35.5766 67.4896 36.5162 67.1068 37.4955 66.8799C37.9349 66.7791 38.2738 66.4421 38.3697 66.0112L38.8675 63.7923H40.4569L40.9501 66.0066C41.0459 66.4375 41.3871 66.7768 41.8242 66.8776C42.8106 67.1068 43.7478 67.4896 44.615 68.0168C44.9913 68.2483 45.4798 68.2483 45.8608 68.0077L47.8171 66.7813L48.939 67.8816L47.6839 69.8002C47.4408 70.1715 47.4385 70.646 47.6745 71.0219C48.2121 71.8746 48.6025 72.7938 48.8362 73.7588C48.939 74.1897 49.2826 74.5221 49.7244 74.616L51.9869 75.102V76.6607L49.7244 77.1466C49.285 77.2406 48.939 77.5753 48.8362 78.0039C48.6025 78.9689 48.2121 79.8881 47.6745 80.7408C47.4361 81.1167 47.4385 81.5912 47.6839 81.9648L48.9367 83.8811L47.8171 84.979L45.8608 83.7527C45.4798 83.5143 44.9913 83.5143 44.615 83.7435C43.7525 84.2684 42.8129 84.6512 41.8266 84.8759C41.3871 84.9767 41.0459 85.316 40.9501 85.7492L40.4546 87.9749ZM39.6622 82.7029C43.4977 82.7029 46.6157 79.6451 46.6157 75.8836C46.6157 72.1221 43.4977 69.0644 39.6622 69.0644C35.8267 69.0644 32.7087 72.1221 32.7087 75.8836C32.7087 79.6451 35.8267 82.7029 39.6622 82.7029ZM39.6622 71.3588C42.2075 71.3588 44.2784 73.3897 44.2784 75.8859C44.2784 78.3821 42.2075 80.413 39.6622 80.413C37.1169 80.413 35.046 78.3821 35.046 75.8859C35.046 73.3897 37.1169 71.3588 39.6622 71.3588Z" fill="black"/>
</svg>
