<svg width="120" height="120" viewBox="0 0 120 120" fill="none" xmlns="http://www.w3.org/2000/svg">
<circle cx="60" cy="60" r="60" fill="#F79F33"/>
<ellipse cx="76.4656" cy="43.4087" rx="16.45" ry="15.4419" fill="white"/>
<rect width="5.86995" height="49.7569" transform="matrix(0.718547 0.695478 -0.693524 0.720434 62.5078 51.4741)" fill="white"/>
<rect width="7.01036" height="9.11132" transform="matrix(0.674737 -0.738058 0.736228 0.676734 40.4141 82.9761)" fill="white"/>
<rect width="7.01036" height="9.11132" transform="matrix(0.674737 -0.738058 0.736228 0.676734 51.6152 71.0439)" fill="white"/>
<path fill-rule="evenodd" clip-rule="evenodd" d="M62.7935 49.4052C61.0376 46.8176 60.0115 43.6933 60.0115 40.329C60.0115 31.3987 67.2414 24.1593 76.16 24.1593C85.0786 24.1593 92.3086 31.3987 92.3086 40.329C92.3086 49.2593 85.0786 56.4987 76.16 56.4987C72.7862 56.4987 69.654 55.4627 67.0635 53.6911L56.077 64.6864L61.3572 69.9734L57.32 74.0158L52.0389 68.7278L43.9626 76.8106L50.5915 83.4482L46.5543 87.4906L39.9244 80.852L32.7932 87.989C31.6237 89.1594 29.7652 89.1423 28.6127 87.9802L28.5632 87.9303C27.4136 86.7712 27.4132 84.8867 28.5688 83.7278L62.7935 49.4052ZM51.9372 72.6684L47.9 76.7108L54.6286 83.4482L46.5543 91.533L39.8258 84.7956L34.7781 89.8499C32.5136 92.1173 28.8462 92.1275 26.5904 89.8687L26.685 89.9635C24.4328 87.7083 24.4377 84.0342 26.7038 81.7651L59.4245 49.0015C58.0798 46.405 57.32 43.4558 57.32 40.329C57.32 29.9103 65.755 21.4644 76.16 21.4644C86.5651 21.4644 95 29.9103 95 40.329C95 50.7476 86.5651 59.1936 76.16 59.1936C73.0372 59.1936 70.0919 58.4329 67.4988 57.0864L60.0115 64.5835L65.3943 69.9734L57.32 78.0583L51.9372 72.6684ZM76.16 51.1088C82.1058 51.1088 86.9257 46.2825 86.9257 40.329C86.9257 34.3755 82.1058 29.5492 76.16 29.5492C70.2143 29.5492 65.3943 34.3755 65.3943 40.329C65.3943 46.2825 70.2143 51.1088 76.16 51.1088ZM76.16 48.4138C80.6193 48.4138 84.2343 44.7941 84.2343 40.329C84.2343 35.8639 80.6193 32.2441 76.16 32.2441C71.7007 32.2441 68.0857 35.8639 68.0857 40.329C68.0857 44.7941 71.7007 48.4138 76.16 48.4138Z" fill="black"/>
</svg>
