<svg width="120" height="120" viewBox="0 0 120 120" fill="none" xmlns="http://www.w3.org/2000/svg">
<circle cx="60" cy="60" r="60" fill="#F79F33"/>
<rect x="34.2305" y="28" width="49.8462" height="31.7778" fill="white"/>
<rect x="28" y="59.7778" width="63" height="33.2222" fill="white"/>
<path d="M90 50.9721V48.5969C90 47.3499 88.8787 46.3358 87.5 46.3358V24.8559C87.5 22.986 85.8175 21.4644 83.75 21.4644H36.25C34.1825 21.4644 32.5 22.986 32.5 24.8559V50.8579C31.1213 50.8579 30 51.872 30 53.1189V55.4942C27.1512 56.0199 25 58.3035 25 61.0326V85.904C25 89.0209 27.8038 91.5566 31.25 91.5566H33.75H38.75H88.75C92.1963 91.5566 95 89.0209 95 85.904V56.5105C95 53.7814 92.8487 51.4978 90 50.9721ZM50 55.38H45V53.1189H50V55.38ZM50 50.8579H45C43.6213 50.8579 42.5 51.872 42.5 53.1189V55.38H40V54.2495V53.1189V28.2475H80V46.3358C78.6213 46.3358 77.5 47.3499 77.5 48.5969V50.8579H60.8213C59.1525 50.8579 57.5825 51.4458 56.4025 52.513L53.2325 55.38H52.5V53.1189C52.5 51.872 51.3787 50.8579 50 50.8579ZM80 48.5969H87.5V50.8579H80V48.5969ZM35 24.8559C35 24.233 35.5612 23.7254 36.25 23.7254H83.75C84.4388 23.7254 85 24.233 85 24.8559V46.3358H82.5V25.9864H37.5V50.8579H35V24.8559ZM37.5 53.1189V54.2495V55.38H32.5V53.1189H37.5ZM31.25 57.641H54.2675L58.17 54.1115C58.8675 53.4807 59.8338 53.1189 60.8213 53.1189H88.75C90.8175 53.1189 92.5 54.6406 92.5 56.5105V59.9021H78.0638C75.3162 58.472 72.1413 57.641 68.75 57.641C65.3587 57.641 62.1838 58.472 59.4362 59.9021H38.75H33.75H27.73C28.2475 58.5895 29.6225 57.641 31.25 57.641ZM51.23 80.5872C51.8237 82.0037 52.6187 83.3287 53.5888 84.535C53.2525 84.6876 52.8862 84.7735 52.5 84.7735C51.1213 84.7735 50 83.7594 50 82.5125C50 81.703 50.4925 80.9829 51.23 80.5872ZM52.5 74.5988C52.5 66.4953 59.79 59.9021 68.75 59.9021C77.71 59.9021 85 66.4953 85 74.5988C85 82.7024 77.71 89.2956 68.75 89.2956C59.79 89.2956 52.5 82.7024 52.5 74.5988ZM33.75 89.2956H31.25C29.1825 89.2956 27.5 87.7739 27.5 85.904V62.1631H33.75H38.75C40.8175 62.1631 42.5 63.6848 42.5 65.5547V65.7785L36.145 67.056C33.2625 67.6348 31.25 69.9038 31.25 72.5729V87.0346H33.75V72.5729C33.75 70.971 34.9575 69.6098 36.6862 69.2616L42.5 68.0938V85.904C42.5 87.7739 40.8175 89.2956 38.75 89.2956H33.75ZM43.7175 89.2956C44.5113 88.3482 45 87.1815 45 85.904V65.5547C45 64.2772 44.5113 63.1105 43.7175 62.1631H56.045C52.3388 65.263 50 69.6833 50 74.5988C50 75.9091 50.1813 77.1798 50.4938 78.4064C48.725 79.113 47.5 80.6991 47.5 82.5125C47.5 85.0064 49.7425 87.0346 52.5 87.0346C53.4662 87.0346 54.3938 86.7564 55.195 86.2828C56.4387 87.4619 57.8638 88.4771 59.435 89.2956H43.7175ZM88.75 89.2956H78.0638C83.6925 86.3664 87.5 80.8823 87.5 74.5988C87.5 69.6833 85.1612 65.263 81.4537 62.1631H92.5V85.904C92.5 87.7739 90.8175 89.2956 88.75 89.2956Z" fill="black"/>
<path d="M68.75 79.1208C71.5075 79.1208 73.75 77.0927 73.75 74.5988C73.75 72.1048 71.5075 70.0767 68.75 70.0767C65.9925 70.0767 63.75 72.1048 63.75 74.5988C63.75 77.0927 65.9925 79.1208 68.75 79.1208ZM68.75 72.3377C70.1287 72.3377 71.25 73.3518 71.25 74.5988C71.25 75.8457 70.1287 76.8598 68.75 76.8598C67.3712 76.8598 66.25 75.8457 66.25 74.5988C66.25 73.3518 67.3712 72.3377 68.75 72.3377Z" fill="black"/>
<path d="M68.75 85.9043C75.6425 85.9043 81.25 80.8328 81.25 74.5991C81.25 68.3654 75.6425 63.2939 68.75 63.2939C61.8575 63.2939 56.25 68.3654 56.25 74.5991C56.25 80.8328 61.8575 85.9043 68.75 85.9043ZM68.75 65.555C74.2638 65.555 78.75 69.6124 78.75 74.5991C78.75 79.5858 74.2638 83.6433 68.75 83.6433C63.2363 83.6433 58.75 79.5858 58.75 74.5991C58.75 69.6124 63.2363 65.555 68.75 65.555Z" fill="black"/>
<path d="M90 84.7734H87.5V87.0342H90V84.7734Z" fill="black"/>
<path d="M60 55.3799H57.5V57.6406H60V55.3799Z" fill="black"/>
<path d="M90 55.3799H85V57.6406H90V55.3799Z" fill="black"/>
<path d="M82.5 55.3799H77.5V57.6406H82.5V55.3799Z" fill="black"/>
<path d="M65 55.3799H62.5V57.6406H65V55.3799Z" fill="black"/>
</svg>
