<svg width="120" height="120" viewBox="0 0 120 120" fill="none" xmlns="http://www.w3.org/2000/svg">
<circle cx="60" cy="60" r="60" fill="#F79F33"/>
<ellipse cx="60.3707" cy="53.3253" rx="22.2222" ry="21.3253" fill="white"/>
<rect x="52.2227" y="72.4819" width="16.2963" height="11.5663" fill="white"/>
<rect x="30" y="82.6025" width="60" height="9.39759" fill="white"/>
<path d="M86.8333 77.5382H70.5V72.6656C73.6914 70.9418 76.4127 68.4617 78.426 65.4419C80.4394 62.4221 81.6836 58.9546 82.05 55.3423H83.3333C84.8804 55.3423 86.3642 54.7269 87.4581 53.6315C88.5521 52.5361 89.1667 51.0504 89.1667 49.5013C89.1667 47.9521 88.5521 46.4664 87.4581 45.371C86.3642 44.2756 84.8804 43.6602 83.3333 43.6602H82.1667C82.1701 39.912 81.1061 36.2405 79.0995 33.0763L81.9438 29.1605C82.0704 28.9862 82.1463 28.7802 82.1632 28.5654C82.1801 28.3506 82.1374 28.1353 82.0397 27.9433C81.942 27.7513 81.7932 27.5901 81.6097 27.4775C81.4262 27.3649 81.2152 27.3053 81 27.3054H79.2232L80.9172 23.0671C80.9881 22.8898 81.0146 22.6977 80.9942 22.5078C80.9738 22.3178 80.9072 22.1358 80.8003 21.9776C80.6933 21.8194 80.5492 21.6899 80.3806 21.6004C80.212 21.5109 80.0241 21.4642 79.8333 21.4644H67C66.8305 21.4644 66.6631 21.5014 66.5094 21.5728C66.3556 21.6442 66.2193 21.7483 66.1098 21.8779C66.0003 22.0074 65.9203 22.1592 65.8754 22.3229C65.8305 22.4865 65.8217 22.6579 65.8497 22.8253L66.0725 24.1676C64.8406 23.9266 63.5885 23.8038 62.3333 23.8008H43.6667C43.194 23.7973 42.7335 23.651 42.3453 23.381C41.9571 23.1111 41.6592 22.7301 41.4908 22.2879C41.3963 22.0422 41.2221 21.8354 40.9961 21.7007C40.7702 21.566 40.5056 21.5111 40.2448 21.545C39.1745 21.6883 38.1431 22.0427 37.2105 22.5878C36.2778 23.1329 35.4624 23.8578 34.8114 24.7206C34.1604 25.5833 33.6867 26.5667 33.4178 27.614C33.1489 28.6613 33.0901 29.7515 33.2448 30.8217C33.4773 32.3219 34.1213 33.728 35.1052 34.8831C36.0891 36.0382 37.374 36.897 38.8168 37.3636C38.187 39.4037 37.8576 41.5249 37.8392 43.6602H36.6667C35.1196 43.6602 33.6358 44.2756 32.5419 45.371C31.4479 46.4664 30.8333 47.9521 30.8333 49.5013C30.8333 51.0504 31.4479 52.5361 32.5419 53.6315C33.6358 54.7269 35.1196 55.3423 36.6667 55.3423H37.95C38.3164 58.9546 39.5606 62.4221 41.574 65.4419C43.5873 68.4617 46.3086 70.9418 49.5 72.6656V77.5382H33.1667C31.0015 77.5407 28.9257 78.403 27.3947 79.936C25.8637 81.4691 25.0025 83.5476 25 85.7156V90.3884C25 90.6983 25.1229 90.9954 25.3417 91.2145C25.5605 91.4336 25.8572 91.5566 26.1667 91.5566H93.8333C94.1428 91.5566 94.4395 91.4336 94.6583 91.2145C94.8771 90.9954 95 90.6983 95 90.3884V85.7156C94.9975 83.5476 94.1363 81.4691 92.6053 79.936C91.0743 78.403 88.9985 77.5407 86.8333 77.5382ZM83.3333 45.9967C84.2616 45.9967 85.1518 46.3659 85.8082 47.0231C86.4646 47.6804 86.8333 48.5718 86.8333 49.5013C86.8333 50.4308 86.4646 51.3222 85.8082 51.9794C85.1518 52.6367 84.2616 53.0059 83.3333 53.0059H82.1667V45.9967H83.3333ZM79.8333 43.5434C78.6175 43.2971 77.5128 42.6662 76.6821 41.7438C75.8514 40.8213 75.3385 39.656 75.2192 38.4197L77.6167 35.1324C79.0549 37.7029 79.8177 40.597 79.8333 43.5434ZM78.1102 23.8008L76.4162 28.039C76.3452 28.2163 76.3187 28.4084 76.3391 28.5984C76.3595 28.7883 76.4261 28.9704 76.5331 29.1286C76.64 29.2868 76.7841 29.4163 76.9527 29.5057C77.1213 29.5952 77.3092 29.6419 77.5 29.6418H78.7087L72.8333 37.7316V29.6418C72.8333 29.332 72.7104 29.0348 72.4916 28.8157C72.2728 28.5967 71.9761 28.4736 71.6667 28.4736H69.1548L68.3778 23.8008H78.1102ZM35.5583 30.4957C35.3539 29.088 35.6689 27.6539 36.4443 26.462C37.2198 25.27 38.4026 24.402 39.7712 24.0204C40.1959 24.6674 40.7738 25.1993 41.4534 25.5686C42.1331 25.9379 42.8934 26.1333 43.6667 26.1372H62.3333C63.7329 26.14 65.127 26.3118 66.4855 26.6488L67.0163 29.8345C67.0619 30.1071 67.2024 30.3547 67.413 30.5333C67.6237 30.7119 67.8907 30.8099 68.1667 30.81H70.5V35.4828H41.5783C40.1447 35.5113 38.7485 35.0235 37.6437 34.1083C36.5389 33.1931 35.7989 31.9112 35.5583 30.4957ZM33.1667 49.5013C33.1667 48.5718 33.5354 47.6804 34.1918 47.0231C34.8482 46.3659 35.7384 45.9967 36.6667 45.9967H37.8333V53.0059H36.6667C35.7384 53.0059 34.8482 52.6367 34.1918 51.9794C33.5354 51.3222 33.1667 50.4308 33.1667 49.5013ZM40.1667 53.1227V43.7771C40.1765 41.7462 40.4996 39.7291 41.1245 37.797C41.2762 37.804 41.4255 37.8169 41.5783 37.8169H70.5V41.3215C70.5 41.5682 70.5779 41.8086 70.7227 42.0082C70.8675 42.2079 71.0717 42.3564 71.306 42.4327C71.5403 42.509 71.7928 42.509 72.0271 42.4328C72.2614 42.3566 72.4657 42.208 72.6105 42.0084L73.4353 40.8729C73.9659 42.2007 74.8367 43.365 75.96 44.2484C77.0833 45.1317 78.4193 45.7029 79.8333 45.9044V53.1227C79.8333 58.3898 77.7438 63.4411 74.0243 67.1655C70.3048 70.8899 65.2601 72.9822 60 72.9822C54.7399 72.9822 49.6952 70.8899 45.9757 67.1655C42.2562 63.4411 40.1667 58.3898 40.1667 53.1227ZM60 75.3186C62.7977 75.3156 65.5693 74.7792 68.1667 73.738V78.0604L60 83.1724L51.8333 78.0604V73.738C54.4307 74.7792 57.2023 75.3156 60 75.3186ZM92.6667 89.2202H27.3333V85.7156C27.3352 84.1671 27.9504 82.6824 29.0439 81.5874C30.1375 80.4924 31.6201 79.8764 33.1667 79.8746H50.3318L59.3817 85.538C59.5671 85.6541 59.7813 85.7156 60 85.7156C60.2187 85.7156 60.4329 85.6541 60.6183 85.538L69.6682 79.8746H86.8333C88.3799 79.8764 89.8625 80.4924 90.9561 81.5874C92.0496 82.6824 92.6648 84.1671 92.6667 85.7156V89.2202Z" fill="black"/>
<path d="M67 65.1085C67 63.2496 66.2625 61.4669 64.9497 60.1525C63.637 58.838 61.8565 58.0996 60 58.0996C58.1435 58.0996 56.363 58.838 55.0503 60.1525C53.7375 61.4669 53 63.2496 53 65.1085C53 65.4183 53.1229 65.7154 53.3417 65.9345C53.5605 66.1535 53.8572 66.2766 54.1667 66.2766H65.8333C66.1428 66.2766 66.4395 66.1535 66.6583 65.9345C66.8771 65.7154 67 65.4183 67 65.1085ZM55.4815 63.9403C55.7401 62.9373 56.3243 62.0488 57.1422 61.4144C57.9601 60.7801 58.9654 60.4358 60 60.4358C61.0346 60.4358 62.0399 60.7801 62.8578 61.4144C63.6757 62.0488 64.2599 62.9373 64.5185 63.9403H55.4815Z" fill="black"/>
<path d="M64.1443 49.8052L71.1443 53.3098L72.1873 51.2187L67.2745 48.7538L72.1873 46.3006L71.1443 44.2095L64.1443 47.7141C63.9502 47.811 63.7868 47.9602 63.6727 48.1448C63.5585 48.3295 63.498 48.5424 63.498 48.7596C63.498 48.9768 63.5585 49.1898 63.6727 49.3744C63.7868 49.5591 63.9502 49.7083 64.1443 49.8052Z" fill="black"/>
<path d="M56.5006 48.7538C56.5007 48.5367 56.4404 48.3239 56.3264 48.1392C56.2125 47.9545 56.0494 47.8053 55.8554 47.7082L48.8555 44.2036L47.8125 46.2947L52.7253 48.7538L47.8125 51.2129L48.8555 53.304L55.8554 49.7993C56.0494 49.7023 56.2125 49.5531 56.3264 49.3684C56.4404 49.1837 56.5007 48.9709 56.5006 48.7538Z" fill="black"/>
<line y1="-1" x2="112.383" y2="-1" transform="matrix(0.711852 0.702329 -0.699949 0.714193 20 21.0703)" stroke="black" stroke-width="2"/>
<line y1="-1" x2="111.438" y2="-1" transform="matrix(-0.705925 0.708286 -0.705925 -0.708286 100 20)" stroke="black" stroke-width="2"/>
</svg>
