<svg width="34" height="25" viewBox="0 0 34 25" fill="none" xmlns="http://www.w3.org/2000/svg">
<path d="M34 6.77029V20.5393C34 22.9198 31.8974 24.8488 29.3026 24.8488H4.69737C3.45155 24.8488 2.25675 24.3948 1.37583 23.5866C0.4949 22.7784 0 21.6823 0 20.5393V6.77029L16.4614 15.0774C16.7969 15.2464 17.204 15.2464 17.5386 15.0774L34 6.76947V6.77029ZM29.3026 0.223145C30.5289 0.223249 31.7064 0.663249 32.5838 1.44915C33.4612 2.23506 33.9688 3.30456 33.9982 4.42921L17 13.0072L0.00178934 4.42839L0.00357911 4.35451C0.0536867 3.24328 0.570132 2.19286 1.44492 1.42289C2.31971 0.652921 3.48509 0.223041 4.69737 0.223145H29.3026Z" fill="black"/>
</svg>
