<svg width="30" height="30" viewBox="0 0 30 30" fill="none" xmlns="http://www.w3.org/2000/svg">
<path d="M20.0013 21.2696L22.5846 18.724C22.9325 18.3854 23.3727 18.1536 23.8518 18.0568C24.3308 17.9599 24.8281 18.0022 25.2832 18.1785L28.4316 19.4172C28.8915 19.6012 29.2859 19.9152 29.565 20.3197C29.8441 20.7242 29.9955 21.201 30 21.6901V27.3723C29.9973 27.7051 29.9263 28.0338 29.7913 28.3388C29.6563 28.6438 29.4601 28.9187 29.2144 29.147C28.9688 29.3752 28.6788 29.5522 28.3619 29.6671C28.045 29.782 27.7078 29.8326 27.3706 29.8157C5.3088 28.4633 0.857235 10.0529 0.0153584 3.00695C-0.023722 2.66094 0.0119848 2.3107 0.12013 1.97927C0.228275 1.64784 0.406406 1.34273 0.642807 1.08401C0.879207 0.825289 1.16852 0.618825 1.49171 0.4782C1.8149 0.337576 2.16464 0.265976 2.51792 0.268113H8.08815C8.58521 0.269563 9.07047 0.417518 9.4815 0.69295C9.89254 0.968381 10.2106 1.35869 10.3947 1.81368L11.6517 4.91618C11.8365 5.36288 11.8837 5.85334 11.7873 6.32629C11.6909 6.79924 11.4552 7.23372 11.1097 7.57546L8.52638 10.1211C8.52638 10.1211 10.0141 20.0423 20.0013 21.2696Z" fill="black"/>
</svg>
