<svg width="120" height="120" fill="none" xmlns="http://www.w3.org/2000/svg"><circle cx="60" cy="60" r="60" fill="#F79F33"/><path d="M83.334 67.264v21.48c0 1.367-2.321 3.392-5.185 3.392H36.668c-1.376 0-2.694-.477-3.667-1.325-.972-.848-1.519-1.998-1.519-3.197V74.047" fill="#fff"/><path d="M83.334 67.264v21.48c0 1.367-2.321 3.392-5.185 3.392H36.668c-1.376 0-2.694-.477-3.667-1.325-.972-.848-1.519-1.998-1.519-3.197V74.047" stroke="#000" stroke-width="3" stroke-linejoin="round"/><path d="M83.334 33.349v-6.783c0-1.2-.546-2.35-1.518-3.198-.973-.848-2.292-1.324-3.667-1.324H36.668c-1.376 0-2.694.476-3.667 1.324-.972.848-1.519 1.998-1.519 3.198v24.871" fill="#fff"/><path d="M83.334 33.349v-6.783c0-1.2-.546-2.35-1.518-3.198-.973-.848-2.292-1.324-3.667-1.324H36.668c-1.376 0-2.694.476-3.667 1.324-.972.848-1.519 1.998-1.519 3.198v24.871m0-20.35h51.852M31.482 83.091h51.852M62.592 26.565h2.592m-9.073 61.048h2.593M60 26.565H49.628" stroke="#000" stroke-width="3" stroke-linejoin="round"/><path d="M56.111 54.828H25v4.522h31.111v-4.522z" fill="#fff" stroke="#000" stroke-width="3" stroke-linejoin="round"/><path d="M27.592 59.35v10.175c0 .3.136.588.38.8.243.212.572.33.916.33h23.333c.344 0 .674-.118.917-.33.243-.212.38-.5.38-.8V59.351" fill="#fff"/><path d="M27.592 59.35v10.175c0 .3.136.588.38.8.243.212.572.33.916.33h23.333c.344 0 .674-.118.917-.33.243-.212.38-.5.38-.8V59.351m-12.963 3.391v4.522m6.482-4.522v4.522m-12.963-4.522v4.522" stroke="#000" stroke-width="3" stroke-linejoin="round"/><path d="M43.148 49.176h-5.185v5.653h5.185v-5.653zm36.296 14.697C88.035 63.873 95 57.799 95 50.306c0-7.492-6.965-13.566-15.556-13.566-8.59 0-15.555 6.074-15.555 13.566 0 7.493 6.964 13.567 15.555 13.567z" fill="#fff" stroke="#000" stroke-width="3" stroke-linejoin="round"/><path d="M74.26 52.568V54.9c0 .58.264 1.138.735 1.548.471.41 1.11.642 1.776.642h5.347c.33 0 .656-.057.961-.167a2.56 2.56 0 00.815-.474c.233-.204.419-.445.545-.71a1.95 1.95 0 00.191-.84v-2.401a1.95 1.95 0 00-.19-.84 2.196 2.196 0 00-.545-.71 2.561 2.561 0 00-.816-.475 2.834 2.834 0 00-.961-.166H76.77a2.71 2.71 0 01-1.776-.642c-.47-.41-.735-.968-.735-1.548v-2.403c0-.287.064-.572.19-.838.127-.266.312-.507.545-.71.233-.204.51-.366.814-.476.305-.11.632-.167.962-.167h5.347c.33 0 .657.057.962.167.304.11.581.271.815.475.233.203.418.445.544.71.126.267.191.552.191.84v2.33" fill="#fff"/><path d="M74.26 52.568V54.9c0 .58.264 1.138.735 1.548.471.41 1.11.642 1.776.642h5.347c.33 0 .656-.057.961-.167a2.56 2.56 0 00.815-.474c.233-.204.419-.445.545-.71a1.95 1.95 0 00.191-.84v-2.401a1.95 1.95 0 00-.19-.84 2.196 2.196 0 00-.545-.71 2.561 2.561 0 00-.816-.475 2.834 2.834 0 00-.961-.166H76.77a2.71 2.71 0 01-1.776-.642c-.47-.41-.735-.968-.735-1.548v-2.403c0-.287.064-.572.19-.838.127-.266.312-.507.545-.71.233-.204.51-.366.814-.476.305-.11.632-.167.962-.167h5.347c.33 0 .657.057.962.167.304.11.581.271.815.475.233.203.418.445.544.71.126.267.191.552.191.84v2.33m-5.184-4.522v-3.391m0 20.349V57.09" stroke="#000" stroke-width="3" stroke-linejoin="round"/><path d="M44.445 35.61l-5.185 4.522 5.185 4.522" fill="#fff"/><path d="M44.445 35.61l-5.185 4.522 5.185 4.522" stroke="#000" stroke-width="3" stroke-linejoin="round"/><path d="M39.26 40.132h16.852c.342-.006.682.048 1 .16.318.11.607.277.849.488.242.211.433.463.56.74.128.277.19.574.183.873v3.391" fill="#fff"/><path d="M39.26 40.132h16.852c.342-.006.682.048 1 .16.318.11.607.277.849.488.242.211.433.463.56.74.128.277.19.574.183.873v3.391" stroke="#000" stroke-width="3" stroke-linejoin="round"/><path d="M72.963 78.57l5.185-4.523-5.185-4.522" fill="#fff"/><path d="M72.963 78.57l5.185-4.523-5.185-4.522" stroke="#000" stroke-width="3" stroke-linejoin="round"/><path d="M78.148 74.047H61.296a2.872 2.872 0 01-1-.16 2.597 2.597 0 01-.85-.489 2.217 2.217 0 01-.56-.74 1.966 1.966 0 01-.182-.872v-3.392" fill="#fff"/><path d="M78.148 74.047H61.296a2.872 2.872 0 01-1-.16 2.597 2.597 0 01-.85-.489 2.217 2.217 0 01-.56-.74 1.966 1.966 0 01-.182-.872v-3.392" stroke="#000" stroke-width="3" stroke-linejoin="round"/></svg>