<svg width="120" height="120" fill="none" xmlns="http://www.w3.org/2000/svg"><path fill="#fff" d="M64 27h27v65H64z"/><path fill="#fff" d="M29 62h38v30H29z"/><path fill="#fff" d="M51 56h13v8H51z"/><circle cx="60" cy="60" r="60" fill="#F79F33"/><path d="M66.355 22.044c-2.857 0-4.955 2.64-4.955 5.607 0 1.637.653 3.156 1.706 4.205-1.051 1.05-1.706 2.57-1.706 4.206 0 1.637.653 3.156 1.706 4.205-1.051 1.05-1.706 2.57-1.706 4.206 0 1.647.664 3.172 1.728 4.222-.417.412-.756.89-1.028 1.424a20.774 20.774 0 00-13.557 5.569H29.955c-2.857 0-4.955 2.64-4.955 5.607 0 1.637.653 3.156 1.706 4.206C25.655 66.55 25 68.07 25 69.706c0 1.638.653 3.156 1.706 4.206-1.051 1.05-1.706 2.57-1.706 4.205 0 1.638.653 3.156 1.706 4.206-1.051 1.05-1.706 2.57-1.706 4.205 0 2.967 2.098 5.608 4.955 5.608H61.52a1.4 1.4 0 00.35-.044c.292.012.58.044.875.044.41 0 .81-.037 1.214-.06.135.04.275.06.416.06h25.67c2.857 0 4.955-2.641 4.955-5.608 0-1.635-.655-3.156-1.706-4.205C94.347 81.273 95 79.755 95 78.117c0-1.636-.655-3.156-1.706-4.205C94.347 72.862 95 71.343 95 69.706c0-1.636-.655-3.156-1.706-4.205C94.347 64.45 95 62.932 95 61.295c0-1.636-.655-3.156-1.706-4.205C94.347 56.04 95 54.52 95 52.884c0-1.636-.655-3.156-1.706-4.206C94.347 47.629 95 46.11 95 44.474c0-1.636-.655-3.156-1.706-4.206C94.347 39.217 95 37.7 95 36.062c0-1.636-.655-3.156-1.706-4.206C94.347 30.806 95 29.288 95 27.651c0-2.966-2.098-5.607-4.955-5.607h-23.69zm0 2.803h23.69c1.081 0 2.155 1.11 2.155 2.804 0 1.693-1.074 2.803-2.155 2.803h-23.69c-1.081 0-2.155-1.11-2.155-2.803 0-1.693 1.074-2.804 2.155-2.804zm0 8.411h23.69c1.081 0 2.155 1.11 2.155 2.804 0 1.693-1.074 2.804-2.155 2.804h-23.69c-1.081 0-2.155-1.11-2.155-2.804 0-1.693 1.074-2.804 2.155-2.804zm0 8.411h23.69c1.081 0 2.155 1.11 2.155 2.804 0 1.693-1.074 2.804-2.155 2.804h-23.69c-1.081 0-2.155-1.11-2.155-2.804 0-1.693 1.074-2.804 2.155-2.804zm0 8.411h23.69c1.081 0 2.155 1.11 2.155 2.804 0 1.694-1.074 2.804-2.155 2.804H76.937a20.781 20.781 0 00-11.375-5.389c.253-.13.517-.219.793-.219zm-3.61 2.81C72.831 52.89 81 61.04 81 71.108c0 10.072-8.169 18.224-18.255 18.224-10.089 0-18.145-8.142-18.145-18.224 0-10.077 8.056-18.219 18.145-18.219zm-32.79 5.601h16.067A20.98 20.98 0 0043.02 64.1H29.955c-1.081 0-2.155-1.11-2.155-2.804 0-1.693 1.074-2.804 2.155-2.804zm49.503 0h10.587c1.081 0 2.155 1.111 2.155 2.804 0 1.694-1.074 2.804-2.155 2.804h-7.574a21.058 21.058 0 00-3.013-5.608zm-23.674 2.81v22.43h2.8v-7.317c1.154 1.05 2.587 1.709 4.21 1.709 4.042 0 7.006-3.933 7.006-8.411S66.836 61.3 62.795 61.3c-1.624 0-3.057.653-4.211 1.703V61.3h-2.8zm7.01 2.803c2.152 0 4.206 2.343 4.206 5.608 0 3.264-2.053 5.607-4.206 5.607-2.151 0-4.21-2.343-4.21-5.607 0-3.265 2.059-5.608 4.21-5.608zm-32.84 2.799h12.267a21.227 21.227 0 00-.421 4.205c0 .474.04.935.071 1.402H29.955c-1.081 0-2.155-1.11-2.155-2.804 0-1.693 1.074-2.803 2.155-2.803zm53.294 0h6.797c1.081 0 2.155 1.11 2.155 2.803 0 1.694-1.074 2.804-2.155 2.804H83.73c.03-.466.071-.929.071-1.402 0-.188-.037-.374-.11-.548h-.005a21.187 21.187 0 00-.437-3.657zm-53.293 8.41H42.22a20.943 20.943 0 002.007 5.608H29.955c-1.081 0-2.155-1.11-2.155-2.804 0-1.693 1.074-2.803 2.155-2.803zm53.424 0h6.666c1.081 0 2.155 1.111 2.155 2.804 0 1.694-1.074 2.804-2.155 2.804H81.35a20.853 20.853 0 002.029-5.607zm-13.579.05v2.803h2.778v-2.803H69.8zm-23.85 8.263a21.027 21.027 0 006.377 5.706H29.955c-1.081 0-2.155-1.11-2.155-2.804 0-1.693 1.074-2.803 2.155-2.803H45.42a1.39 1.39 0 00.53-.099zm33.595.099h10.5c1.081 0 2.155 1.11 2.155 2.803 0 1.694-1.074 2.804-2.155 2.804H73.196a21.181 21.181 0 006.35-5.607z" fill="#fff"/></svg>