<svg width="120" height="120" fill="none" xmlns="http://www.w3.org/2000/svg"><circle cx="60" cy="60" r="60" fill="#F79F33"/><path d="M91 42.878V36.34L76.5 22.39H35.239c-3.446 0-6.239 2.5-6.239 5.58v58.586c0 3.082 2.793 5.58 6.238 5.58h49.524c3.445 0 6.238-2.498 6.238-5.58V49.81" fill="#fff"/><path d="M91 42.878V36.34L76.5 22.39H35.239c-3.446 0-6.239 2.5-6.239 5.58v58.586c0 3.082 2.793 5.58 6.238 5.58h49.524c3.445 0 6.238-2.498 6.238-5.58V49.81" stroke="#000" stroke-width="3" stroke-miterlimit="10" stroke-linecap="round" stroke-linejoin="round"/><path d="M76.5 22.044v8.716c0 3.081 2.793 5.58 6.238 5.58H91" fill="#fff"/><path d="M76.5 22.044v8.716c0 3.081 2.793 5.58 6.238 5.58H91" stroke="#000" stroke-width="3" stroke-miterlimit="10"/><path d="M47.986 47.197c4.053 0 7.34-2.938 7.34-6.564 0-3.625-3.287-6.564-7.34-6.564s-7.34 2.939-7.34 6.564c0 3.626 3.286 6.564 7.34 6.564z" fill="#fff" stroke="#000" stroke-width="3" stroke-miterlimit="10"/><path d="M41.564 43.808l-.595-1.247-2.602 8.675 3.372-1.057 2.048 2.355 1.718-5.73c-1.684-.541-3.085-1.612-3.94-2.996zm13.374-1.07l-.53 1.07c-.857 1.384-2.259 2.456-3.943 2.998l1.718 5.73 2.328-2.423 3.092 1.124-2.665-8.499z" fill="#fff" stroke="#000" stroke-width="3" stroke-miterlimit="10" stroke-linecap="round" stroke-linejoin="round"/><path d="M38.367 68.42h37.025m-37.025 9.775h21.416" stroke="#000" stroke-width="3" stroke-miterlimit="10" stroke-linecap="round" stroke-linejoin="round"/></svg>