<svg width="120" height="120" fill="none" xmlns="http://www.w3.org/2000/svg"><circle cx="60" cy="60" r="60" fill="#F79F33"/><path d="M76.333 21.725H43.667A4.67 4.67 0 0039 26.398v60.746a4.67 4.67 0 004.667 4.673h32.666A4.67 4.67 0 0081 87.144V26.398a4.67 4.67 0 00-4.667-4.673z" fill="#fff" stroke="#000" stroke-width="3" stroke-linecap="round" stroke-linejoin="round"/><path d="M57.666 82.472h4.667" stroke="#000" stroke-width="3" stroke-linecap="round" stroke-linejoin="round"/><path d="M69.333 21.725v4.673c0 1.24-.492 2.428-1.367 3.304a4.663 4.663 0 01-3.3 1.369h-9.333a4.663 4.663 0 01-3.3-1.37 4.676 4.676 0 01-1.367-3.303v-4.673" fill="#fff"/><path d="M69.333 21.725v4.673c0 1.24-.492 2.428-1.367 3.304a4.663 4.663 0 01-3.3 1.369h-9.333a4.663 4.663 0 01-3.3-1.37 4.676 4.676 0 01-1.367-3.303v-4.673" stroke="#000" stroke-width="3" stroke-linecap="round" stroke-linejoin="round"/><path d="M95 35.743l-7 7.01 7 7.009-7 7.009 7 7.009-7 7.01 7 7.008" fill="#fff"/><path d="M95 35.743l-7 7.01 7 7.009-7 7.009 7 7.009-7 7.01 7 7.008" stroke="#000" stroke-width="3" stroke-linecap="round" stroke-linejoin="round"/><path d="M25 77.798l7-7.009-7-7.01 7-7.008-7-7.01 7-7.009-7-7.009" fill="#fff"/><path d="M25 77.798l7-7.009-7-7.01 7-7.008-7-7.01 7-7.009-7-7.009" stroke="#000" stroke-width="3" stroke-linecap="round" stroke-linejoin="round"/></svg>