<svg width="120" height="120" fill="none" xmlns="http://www.w3.org/2000/svg"><circle cx="60" cy="60" r="60" fill="#F79F33"/><ellipse cx="48.1" cy="51.129" rx="21" ry="26.129" fill="#fff"/><path d="M89.613 58.168L64.765 87.034l-1.674-56.257 26.522 27.39z" fill="#fff"/><ellipse cx="37.95" cy="77.946" rx="10.85" ry="10.314" fill="#fff"/><ellipse cx="69.1" cy="71.758" rx="23.1" ry="16.503" fill="#fff"/><path d="M78.868 92.402c.592 0 1.099-.438 1.16-1.027l.94-8.844h5.394c1.5 0 2.788-1.144 2.936-2.606l.682-6.881h2.833c.844 0 1.542-.35 1.916-.965.374-.612.36-1.385-.04-2.113l-4.083-8.871.148-2.559c.002-4.382-2.015-8.607-5.533-11.655a1.183 1.183 0 00-1.65.1 1.131 1.131 0 00.103 1.619c3.062 2.65 4.745 6.157 4.745 9.872l-.162 2.774c-.011.183.024.369.1.536l4.13 8.963-3.568.007a1.16 1.16 0 00-1.164 1.034L86.97 79.7c-.029.281-.318.536-.608.536h-6.447c-.598 0-1.1.442-1.161 1.027l-1.05 9.872a1.151 1.151 0 001.164 1.266z" fill="#000"/><path d="M67.67 92.495c.59 0 1.096-.435 1.16-1.025l1.39-12.767h6.365c1.64 0 3.048-1.252 3.2-2.847l.801-8.06h3.418c.909 0 1.657-.373 2.056-1.024.398-.653.379-1.478-.049-2.265L81.292 54.26l.17-2.993c.003-5.79-3.099-11.296-8.294-14.785a1.18 1.18 0 00-1.623.298 1.127 1.127 0 00.304 1.59c4.558 3.065 7.279 7.863 7.279 12.832l-.185 3.207c-.011.186.023.37.1.536l4.858 10.542-4.376.019a1.16 1.16 0 00-1.164 1.033l-.904 9.098c-.04.415-.447.775-.872.775H69.17c-.599 0-1.099.44-1.162 1.025L66.506 91.23a1.151 1.151 0 001.164 1.265z" fill="#000"/><path d="M58.893 75.439h6.044c1.777 0 3.296-1.355 3.464-3.086l.916-9.244h4.007c.972 0 1.771-.397 2.192-1.089.42-.69.4-1.568-.063-2.409l-5.348-11.628.194-3.425C70.301 33.1 59.907 23.83 47.129 23.83c-12.612 0-22.127 9.77-22.127 22.72 0 4.947 1.234 9.657 3.777 14.398.3.561 1.01.772 1.578.48a1.13 1.13 0 00.49-1.546c-2.36-4.406-3.508-8.766-3.508-13.332 0-11.646 8.508-20.428 19.79-20.428 11.488 0 20.835 8.243 20.835 18.374l-.208 3.64c-.012.184.023.367.1.534l5.504 11.96c.044.08.072.144.09.188-.037.002-.074.002-.126.002h-5.067a1.16 1.16 0 00-1.164 1.036l-1.019 10.283c-.051.548-.572 1.008-1.136 1.008h-6.044c-.645 0-1.169.514-1.169 1.147 0 .632.524 1.146 1.169 1.146z" fill="#000"/><path d="M45.045 62.745h4.203c.549 0 1.023-.376 1.14-.903l.692-3.1a13.95 13.95 0 002.79-1.136l2.726 1.712a1.184 1.184 0 001.456-.154l2.97-2.913c.389-.38.454-.977.157-1.428l-1.745-2.673c.488-.87.876-1.785 1.159-2.737l3.16-.678c.54-.115.92-.58.92-1.121V43.49c0-.538-.38-1.004-.918-1.118l-3.158-.679a13.54 13.54 0 00-1.161-2.737l1.746-2.672a1.128 1.128 0 00-.157-1.428l-2.97-2.914a1.184 1.184 0 00-1.457-.153L53.873 33.5a14.04 14.04 0 00-2.79-1.137l-.692-3.099a1.163 1.163 0 00-1.141-.9h-4.205a1.16 1.16 0 00-1.14.9l-.692 3.101c-.968.276-1.9.656-2.791 1.135l-2.725-1.712a1.184 1.184 0 00-1.459.151l-2.97 2.913c-.389.38-.454.977-.157 1.428l1.743 2.678a13.384 13.384 0 00-1.157 2.734l-3.162.679a1.15 1.15 0 00-.919 1.118v4.124c0 .539.381 1.004.919 1.119l3.162.678c.28.947.669 1.864 1.157 2.735l-1.746 2.675a1.128 1.128 0 00.157 1.428l2.97 2.915c.391.383.996.44 1.457.154l2.725-1.715c.888.48 1.82.858 2.79 1.135l.693 3.101c.119.53.593.906 1.145.906zm3.263-2.293h-2.323l-.643-2.883a1.161 1.161 0 00-.874-.873 11.623 11.623 0 01-3.457-1.405 1.184 1.184 0 00-1.246.009l-2.536 1.593-1.643-1.612 1.624-2.487a1.13 1.13 0 00.012-1.22 11.201 11.201 0 01-1.435-3.392 1.156 1.156 0 00-.888-.857l-2.94-.63v-2.28l2.937-.634a1.16 1.16 0 00.889-.857 11.154 11.154 0 011.435-3.392 1.124 1.124 0 00-.012-1.22l-1.624-2.487 1.643-1.611 2.536 1.593c.378.24.862.24 1.245.01a11.662 11.662 0 013.457-1.406c.44-.1.779-.44.874-.871l.643-2.884h2.324l.642 2.884c.096.43.437.77.877.871 1.218.277 2.38.75 3.457 1.405.38.232.865.232 1.246-.009l2.535-1.593 1.644 1.611-1.625 2.487a1.128 1.128 0 00-.01 1.222 11.311 11.311 0 011.44 3.392c.103.431.447.761.886.855l2.938.633v2.279l-2.94.63c-.44.094-.785.428-.888.857a11.122 11.122 0 01-1.433 3.39 1.12 1.12 0 00.01 1.222l1.624 2.487-1.643 1.611-2.536-1.593a1.194 1.194 0 00-1.246-.009 11.551 11.551 0 01-3.457 1.405c-.44.101-.78.44-.876.874l-.643 2.885zm-1.16-6.874c4.512 0 8.181-3.599 8.181-8.022 0-4.424-3.67-8.023-8.18-8.023-4.511 0-8.181 3.599-8.181 8.023 0 4.424 3.67 8.022 8.18 8.022zm0-13.753c3.224 0 5.844 2.57 5.844 5.73 0 3.162-2.62 5.731-5.843 5.731-3.224 0-5.844-2.57-5.844-5.73 0-3.161 2.62-5.73 5.844-5.73z" fill="#000"/><path d="M37.928 90.267h3.469c.549 0 1.023-.376 1.14-.903l.542-2.441a11.764 11.764 0 002.118-.862l2.15 1.348a1.181 1.181 0 001.456-.154l2.455-2.407a1.13 1.13 0 00.156-1.43l-1.379-2.104c.365-.665.66-1.362.881-2.077l2.487-.534c.536-.115.921-.58.921-1.119v-3.401a1.15 1.15 0 00-.92-1.119l-2.488-.534a11.196 11.196 0 00-.88-2.077l1.378-2.108a1.128 1.128 0 00-.156-1.428l-2.452-2.405a1.181 1.181 0 00-1.456-.153l-2.15 1.347a11.762 11.762 0 00-2.118-.864l-.543-2.436a1.165 1.165 0 00-1.14-.904H37.93c-.547 0-1.023.374-1.14.901l-.545 2.44c-.731.217-1.44.506-2.12.863L31.98 64.36a1.188 1.188 0 00-1.456.153l-2.452 2.405c-.388.38-.453.974-.156 1.428l1.374 2.108a11.46 11.46 0 00-.881 2.077l-2.487.534c-.535.115-.92.58-.92 1.119v3.4c0 .538.383 1.003.92 1.118l2.49.534c.219.717.513 1.41.878 2.076l-1.374 2.107a1.128 1.128 0 00.156 1.428l2.452 2.407c.39.383 1.003.44 1.456.153l2.146-1.35a11.9 11.9 0 002.12.862l.545 2.444a1.15 1.15 0 001.138.905zm2.527-2.292h-1.587l-.498-2.226c-.096-.43-.44-.77-.877-.87a9.461 9.461 0 01-2.79-1.133 1.175 1.175 0 00-1.244.009l-1.952 1.226-1.122-1.1 1.25-1.916c.244-.371.246-.846.01-1.222a8.986 8.986 0 01-1.154-2.732 1.158 1.158 0 00-.891-.862l-2.267-.486v-1.559l2.262-.486c.44-.094.786-.428.889-.857a9.168 9.168 0 011.161-2.737 1.12 1.12 0 00-.01-1.222l-1.25-1.918 1.122-1.1 1.952 1.226a1.19 1.19 0 001.243.01 9.542 9.542 0 012.794-1.14c.439-.1.778-.438.874-.869l.498-2.219h1.589l.493 2.215c.096.43.437.77.874.87.987.23 1.924.613 2.791 1.14.376.231.865.231 1.246-.01l1.956-1.226 1.122 1.1-1.255 1.92a1.128 1.128 0 00-.01 1.22 9.166 9.166 0 011.162 2.738c.103.43.447.763.888.857l2.263.486v1.559l-2.263.486a1.16 1.16 0 00-.888.857 9.166 9.166 0 01-1.161 2.737c-.239.376-.236.85.009 1.224l1.253 1.916-1.12 1.098-1.956-1.226a1.194 1.194 0 00-1.246-.01 9.359 9.359 0 01-2.788 1.133c-.44.1-.781.44-.877.873l-.495 2.226zm-.793-5.272c3.836 0 6.954-3.058 6.954-6.82 0-3.76-3.118-6.819-6.954-6.819-3.835 0-6.953 3.058-6.953 6.82 0 3.761 3.118 6.819 6.953 6.819zm0-11.344c2.546 0 4.616 2.03 4.616 4.527 0 2.496-2.07 4.527-4.616 4.527-2.545 0-4.616-2.03-4.616-4.527 0-2.496 2.07-4.527 4.616-4.527z" fill="#000"/></svg>