<svg width="120" height="120" fill="none" xmlns="http://www.w3.org/2000/svg"><circle cx="60" cy="60" r="60" fill="#F79F33"/><ellipse cx="76.466" cy="43.409" rx="16.45" ry="15.442" fill="#fff"/><path fill="#fff" d="M62.508 51.474l4.218 4.083-34.508 35.846L28 87.321z"/><path fill="#fff" d="M40.414 82.976l4.73-5.174 6.708 6.166-4.73 5.174zm11.201-11.932l4.73-5.174 6.708 6.166-4.73 5.174z"/><path fill-rule="evenodd" clip-rule="evenodd" d="M62.794 49.405a16.11 16.11 0 01-2.782-9.076c0-8.93 7.23-16.17 16.148-16.17 8.919 0 16.149 7.24 16.149 16.17 0 8.93-7.23 16.17-16.149 16.17a16.059 16.059 0 01-9.096-2.808L56.077 64.686l5.28 5.287-4.037 4.043-5.281-5.288-8.076 8.083 6.629 6.637-4.038 4.043-6.63-6.639-7.13 7.137a2.935 2.935 0 01-4.181-.009l-.05-.05a2.986 2.986 0 01.006-4.202l34.224-34.323zM51.937 72.668L47.9 76.711l6.729 6.737-8.075 8.085-6.728-6.737-5.048 5.054c-2.264 2.267-5.932 2.278-8.188.019l.095.094c-2.252-2.255-2.247-5.929.019-8.198l32.72-32.764a18.804 18.804 0 01-2.104-8.672c0-10.419 8.435-18.865 18.84-18.865S95 29.91 95 40.33c0 10.419-8.435 18.865-18.84 18.865a18.74 18.74 0 01-8.661-2.108l-7.487 7.498 5.382 5.39-8.074 8.084-5.383-5.39zm24.223-21.56c5.946 0 10.766-4.825 10.766-10.779 0-5.953-4.82-10.78-10.766-10.78s-10.766 4.827-10.766 10.78c0 5.953 4.82 10.78 10.766 10.78zm0-2.694c4.46 0 8.074-3.62 8.074-8.085 0-4.465-3.615-8.085-8.074-8.085-4.46 0-8.074 3.62-8.074 8.085 0 4.465 3.615 8.085 8.074 8.085z" fill="#000"/></svg>