<svg width="120" height="120" fill="none" xmlns="http://www.w3.org/2000/svg"><circle cx="60" cy="60" r="60" fill="#F79F33"/><path fill="#fff" d="M34.23 28h49.846v31.778H34.23zM28 59.778h63V93H28z"/><path d="M90 50.972v-2.375c0-1.247-1.121-2.261-2.5-2.261v-21.48c0-1.87-1.683-3.392-3.75-3.392h-47.5c-2.068 0-3.75 1.522-3.75 3.392v26.002c-1.379 0-2.5 1.014-2.5 2.26v2.376c-2.849.526-5 2.81-5 5.539v24.871c0 3.117 2.804 5.653 6.25 5.653h57.5c3.446 0 6.25-2.536 6.25-5.653V56.511c0-2.73-2.151-5.013-5-5.539zM50 55.38h-5v-2.261h5v2.261zm0-4.522h-5c-1.379 0-2.5 1.014-2.5 2.26v2.262H40V28.247h40v18.089c-1.379 0-2.5 1.014-2.5 2.26v2.262H60.821c-1.668 0-3.238.588-4.418 1.655l-3.17 2.867H52.5v-2.261c0-1.247-1.121-2.261-2.5-2.261zm30-2.261h7.5v2.26H80v-2.26zM35 24.856c0-.623.561-1.13 1.25-1.13h47.5c.689 0 1.25.507 1.25 1.13v21.48h-2.5v-20.35h-45v24.872H35V24.856zm2.5 28.263v2.261h-5v-2.261h5zm-6.25 4.522h23.017l3.903-3.53c.697-.63 1.664-.992 2.651-.992H88.75c2.067 0 3.75 1.522 3.75 3.392v3.391H78.064a20.142 20.142 0 00-9.314-2.261c-3.391 0-6.566.831-9.314 2.261H27.73c.517-1.313 1.892-2.261 3.52-2.261zm19.98 22.946a16.44 16.44 0 002.359 3.948 2.622 2.622 0 01-1.089.239c-1.379 0-2.5-1.015-2.5-2.261 0-.81.492-1.53 1.23-1.926zM52.5 74.6c0-8.104 7.29-14.697 16.25-14.697S85 66.495 85 74.6c0 8.103-7.29 14.697-16.25 14.697S52.5 82.702 52.5 74.599zM33.75 89.296h-2.5c-2.067 0-3.75-1.522-3.75-3.392v-23.74h11.25c2.068 0 3.75 1.52 3.75 3.39v.224l-6.355 1.278c-2.883.579-4.895 2.848-4.895 5.517v14.462h2.5V72.573c0-1.602 1.208-2.963 2.936-3.311l5.814-1.168v17.81c0 1.87-1.682 3.392-3.75 3.392h-5zm9.968 0C44.51 88.348 45 87.18 45 85.904v-20.35c0-1.277-.489-2.444-1.282-3.39h12.327C52.339 65.262 50 69.683 50 74.598c0 1.31.181 2.58.494 3.807-1.769.707-2.994 2.293-2.994 4.106 0 2.494 2.242 4.523 5 4.523.966 0 1.894-.279 2.695-.752a18.736 18.736 0 004.24 3.013H43.717zm45.032 0H78.064c5.629-2.93 9.436-8.414 9.436-14.697 0-4.916-2.339-9.336-6.046-12.436H92.5v23.741c0 1.87-1.683 3.392-3.75 3.392z" fill="#000"/><path d="M68.75 79.12c2.757 0 5-2.027 5-4.521 0-2.494-2.243-4.522-5-4.522s-5 2.028-5 4.522 2.243 4.522 5 4.522zm0-6.782c1.379 0 2.5 1.014 2.5 2.26 0 1.248-1.121 2.262-2.5 2.262s-2.5-1.014-2.5-2.261 1.121-2.261 2.5-2.261z" fill="#000"/><path d="M68.75 85.904c6.892 0 12.5-5.071 12.5-11.305s-5.608-11.305-12.5-11.305-12.5 5.071-12.5 11.305 5.608 11.305 12.5 11.305zm0-20.349c5.514 0 10 4.057 10 9.044s-4.486 9.044-10 9.044-10-4.057-10-9.044 4.486-9.044 10-9.044zM90 84.773h-2.5v2.261H90v-2.26zM60 55.38h-2.5v2.26H60v-2.26zm30 0h-5v2.26h5v-2.26zm-7.5 0h-5v2.26h5v-2.26zm-17.5 0h-2.5v2.26H65v-2.26z" fill="#000"/></svg>