<svg width="120" height="120" fill="none" xmlns="http://www.w3.org/2000/svg"><circle cx="60" cy="60" r="60" fill="#F79F33"/><ellipse cx="60.371" cy="53.325" rx="22.222" ry="21.325" fill="#fff"/><path fill="#fff" d="M52.223 72.482h16.296v11.566H52.223z"/><path fill="#fff" d="M30 82.603h60v9.398H30z"/><path d="M86.833 77.538H70.5v-4.872a22.216 22.216 0 007.926-7.224 22.255 22.255 0 003.624-10.1h1.283a5.83 5.83 0 004.125-1.71 5.845 5.845 0 000-8.261 5.83 5.83 0 00-4.125-1.71h-1.166A19.73 19.73 0 0079.1 33.075l2.844-3.916A1.169 1.169 0 0081 27.305h-1.777l1.694-4.238a1.17 1.17 0 00-1.084-1.603H67a1.164 1.164 0 00-1.125.859 1.17 1.17 0 00-.025.502l.223 1.343a19.721 19.721 0 00-3.74-.367H43.667a2.344 2.344 0 01-2.176-1.513 1.174 1.174 0 00-1.246-.743 8.159 8.159 0 00-5.434 3.176 8.181 8.181 0 00-1.566 6.1 8.2 8.2 0 005.572 6.543 21.96 21.96 0 00-.978 6.296h-1.172a5.83 5.83 0 00-4.125 1.711 5.845 5.845 0 000 8.26 5.83 5.83 0 004.125 1.711h1.283a22.255 22.255 0 003.624 10.1 22.216 22.216 0 007.926 7.224v4.872H33.167a8.17 8.17 0 00-5.772 2.398A8.193 8.193 0 0025 85.716v4.672a1.169 1.169 0 001.167 1.169h67.666A1.166 1.166 0 0095 90.388v-4.672a8.193 8.193 0 00-2.395-5.78 8.17 8.17 0 00-5.772-2.398zm-3.5-31.541c.929 0 1.819.369 2.475 1.026a3.507 3.507 0 01-2.475 5.983h-1.166v-7.01h1.166zm-3.5-2.454a5.787 5.787 0 01-4.614-5.123l2.398-3.288a17.415 17.415 0 012.216 8.411zM78.11 23.801l-1.694 4.238a1.17 1.17 0 001.084 1.603h1.209l-5.876 8.09v-8.09a1.17 1.17 0 00-1.166-1.168h-2.512l-.777-4.673h9.732zm-42.552 6.695a5.855 5.855 0 01.886-4.034 5.84 5.84 0 013.327-2.442 4.693 4.693 0 003.896 2.117h18.666c1.4.003 2.794.175 4.153.512l.53 3.185a1.169 1.169 0 001.15.976H70.5v4.673H41.578a5.981 5.981 0 01-3.934-1.375 5.995 5.995 0 01-2.086-3.612zM33.167 49.5a3.498 3.498 0 013.5-3.505h1.166v7.01h-1.166a3.507 3.507 0 01-3.5-3.505zm7 3.622v-9.346c.01-2.03.333-4.048.957-5.98.152.007.301.02.454.02H70.5v3.505a1.17 1.17 0 001.527 1.11 1.16 1.16 0 00.584-.424l.824-1.135a8.134 8.134 0 006.398 5.031v7.219c0 5.267-2.09 10.318-5.809 14.042A19.82 19.82 0 0160 72.982a19.82 19.82 0 01-14.024-5.817 19.873 19.873 0 01-5.81-14.042zM60 75.319c2.798-.003 5.57-.54 8.167-1.581v4.322L60 83.172l-8.167-5.112v-4.322A22.012 22.012 0 0060 75.318zM92.667 89.22H27.333v-3.504a5.853 5.853 0 011.71-4.129 5.836 5.836 0 014.124-1.712h17.165l9.05 5.663a1.165 1.165 0 001.236 0l9.05-5.663h17.165a5.836 5.836 0 014.123 1.712 5.853 5.853 0 011.71 4.129v3.504z" fill="#000"/><path d="M67 65.109a7.013 7.013 0 00-2.05-4.956 6.995 6.995 0 00-9.9 0A7.013 7.013 0 0053 65.109a1.169 1.169 0 001.167 1.168h11.666A1.166 1.166 0 0067 65.109zM55.481 63.94A4.673 4.673 0 0160 60.436a4.663 4.663 0 014.519 3.504H55.48zm8.663-14.135l7 3.505 1.043-2.091-4.912-2.465 4.912-2.453-1.043-2.092-7 3.505a1.168 1.168 0 000 2.091zM56.5 48.754a1.17 1.17 0 00-.645-1.046l-7-3.504-1.042 2.09 4.912 2.46-4.913 2.459 1.044 2.091 7-3.505a1.166 1.166 0 00.645-1.045z" fill="#000"/><path transform="rotate(44.614 -15.678 34.909) skewX(.192)" stroke="#000" stroke-width="2" d="M0-1h112.383"/><path transform="matrix(-.70593 .70829 -.70593 -.70829 100 20)" stroke="#000" stroke-width="2" d="M0-1h111.438"/></svg>