<svg width="30" height="30" fill="none" xmlns="http://www.w3.org/2000/svg"><path d="M20.001 21.27l2.584-2.546a2.56 2.56 0 012.699-.546l3.148 1.24c.46.183.854.497 1.133.902.28.404.43.881.435 1.37v5.682a2.436 2.436 0 01-.786 1.775 2.509 2.509 0 01-1.843.669C5.309 28.463.857 10.053.015 3.006a2.432 2.432 0 01.628-1.922c.236-.259.526-.465.849-.606.323-.14.673-.212 1.026-.21h5.57c.497.002.982.15 1.394.425.41.275.729.666.913 1.12l1.257 3.103a2.422 2.422 0 01-.542 2.66L8.526 10.12s1.488 9.921 11.475 11.149z" fill="#000"/></svg>